<?xml version="1.0" encoding="UTF-8" standalone="no"?>
<!-- Created with Inkscape (http://www.inkscape.org/) -->

<svg
   xmlns:dc="http://purl.org/dc/elements/1.1/"
   xmlns:cc="http://creativecommons.org/ns#"
   xmlns:rdf="http://www.w3.org/1999/02/22-rdf-syntax-ns#"
   xmlns:svg="http://www.w3.org/2000/svg"
   xmlns="http://www.w3.org/2000/svg"
   xmlns:sodipodi="http://sodipodi.sourceforge.net/DTD/sodipodi-0.dtd"
   xmlns:inkscape="http://www.inkscape.org/namespaces/inkscape"
   width="172.89415"
   height="73.38092"
   viewBox="0 0 45.74491 19.415368"
   version="1.1"
   id="svg3173"
   inkscape:version="0.92.0 r15299"
   sodipodi:docname="st gobain.svg">
  <defs
     id="defs3167">
    <linearGradient
       id="linearGradient2980"
       spreadMethod="pad"
       gradientTransform="matrix(96.132004,0,0,-96.132004,72.630005,128.88901)"
       gradientUnits="userSpaceOnUse"
       y2="0"
       x2="1"
       y1="0"
       x1="0">
      <stop
         id="stop2966"
         offset="0"
         style="stop-opacity:1;stop-color:#54b6ae" />
      <stop
         id="stop2968"
         offset="0.1"
         style="stop-opacity:1;stop-color:#54b6ae" />
      <stop
         id="stop2970"
         offset="0.3"
         style="stop-opacity:1;stop-color:#3b98da" />
      <stop
         id="stop2972"
         offset="0.42"
         style="stop-opacity:1;stop-color:#254a9a" />
      <stop
         id="stop2974"
         offset="0.55"
         style="stop-opacity:1;stop-color:#ed1443" />
      <stop
         id="stop2976"
         offset="0.84"
         style="stop-opacity:1;stop-color:#f25c19" />
      <stop
         id="stop2978"
         offset="1"
         style="stop-opacity:1;stop-color:#f25c19" />
    </linearGradient>
  </defs>
  <sodipodi:namedview
     id="base"
     pagecolor="#ffffff"
     bordercolor="#666666"
     borderopacity="1.0"
     inkscape:pageopacity="0.0"
     inkscape:pageshadow="2"
     inkscape:zoom="4.6929637"
     inkscape:cx="85.447073"
     inkscape:cy="35.690445"
     inkscape:document-units="mm"
     inkscape:current-layer="layer1"
     showgrid="false"
     fit-margin-top="0"
     fit-margin-left="0"
     fit-margin-right="0"
     fit-margin-bottom="0"
     units="px"
     inkscape:window-width="1280"
     inkscape:window-height="744"
     inkscape:window-x="-4"
     inkscape:window-y="-4"
     inkscape:window-maximized="1" />
  <metadata
     id="metadata3170">
    <rdf:RDF>
      <cc:Work
         rdf:about="">
        <dc:format>image/svg+xml</dc:format>
        <dc:type
           rdf:resource="http://purl.org/dc/dcmitype/StillImage" />
        <dc:title></dc:title>
      </cc:Work>
    </rdf:RDF>
  </metadata>
  <g
     inkscape:label="Layer 1"
     inkscape:groupmode="layer"
     id="layer1"
     transform="translate(-65.838558,-194.80154)">
    <g
       id="g3304"
       transform="translate(0.26458474,-0.26458245)">
      <g
         transform="matrix(0.35277777,0,0,-0.35277777,67.668284,211.63528)"
         id="g2906">
        <path
           inkscape:connector-curvature="0"
           id="path2908"
           style="fill:#254a9a;fill-opacity:1;fill-rule:nonzero;stroke:none"
           d="m 0,0 c -1.778,0.539 -2.557,0.881 -2.557,1.898 0,0.91 1.212,1.233 2.25,1.233 0.908,0 1.884,-0.27 2.547,-0.704 C 2.397,2.325 2.59,2.294 2.77,2.344 2.95,2.392 3.102,2.517 3.186,2.684 L 3.488,3.288 C 3.636,3.586 3.539,3.948 3.26,4.131 2.305,4.755 0.95,5.142 -0.276,5.142 c -2.576,0 -4.308,-1.323 -4.308,-3.292 0,-2.558 2.161,-3.205 3.895,-3.726 1.816,-0.544 2.61,-0.894 2.6,-1.975 0,-1.085 -1.277,-1.471 -2.472,-1.471 -1.145,0 -2.391,0.609 -3.148,1.308 -0.151,0.139 -0.346,0.219 -0.548,0.196 -0.203,-0.023 -0.384,-0.14 -0.489,-0.316 l -0.348,-0.588 c -0.155,-0.259 -0.112,-0.59 0.103,-0.802 1.123,-1.106 2.814,-1.794 4.414,-1.794 2.7,0 4.514,1.401 4.514,3.478 C 3.958,-1.201 1.763,-0.535 0,0" />
      </g>
      <g
         transform="matrix(0.35277777,0,0,-0.35277777,71.864925,209.96735)"
         id="g2910">
        <path
           inkscape:connector-curvature="0"
           id="path2912"
           style="fill:#254a9a;fill-opacity:1;fill-rule:nonzero;stroke:none"
           d="m 0,0 c -0.107,0.233 -0.34,0.383 -0.597,0.383 h -0.714 c -0.258,0 -0.491,-0.15 -0.597,-0.385 l -5.034,-11.099 c -0.092,-0.204 -0.075,-0.439 0.045,-0.627 0.122,-0.189 0.329,-0.301 0.552,-0.301 h 0.73 c 0.258,0 0.492,0.151 0.598,0.386 l 1.255,2.774 h 5.65 l 1.27,-2.777 c 0.107,-0.233 0.34,-0.383 0.596,-0.383 h 0.731 c 0.224,0 0.431,0.114 0.552,0.302 0.121,0.187 0.137,0.423 0.044,0.628 z m -2.883,-6.889 1.924,4.265 1.946,-4.265 h -3.87" />
      </g>
      <g
         transform="matrix(0.35277777,0,0,-0.35277777,74.819437,209.83259)"
         id="g2914">
        <path
           inkscape:connector-curvature="0"
           id="path2916"
           style="fill:#254a9a;fill-opacity:1;fill-rule:nonzero;stroke:none"
           d="m 0,0 h -0.666 c -0.362,0 -0.656,-0.294 -0.656,-0.656 v -11.099 c 0,-0.363 0.294,-0.656 0.656,-0.656 H 0 c 0.362,0 0.656,0.293 0.656,0.656 V -0.656 C 0.656,-0.294 0.362,0 0,0" />
      </g>
      <g
         transform="matrix(0.35277777,0,0,-0.35277777,79.704351,209.83259)"
         id="g2918">
        <path
           inkscape:connector-curvature="0"
           id="path2920"
           style="fill:#254a9a;fill-opacity:1;fill-rule:nonzero;stroke:none"
           d="M 0,0 H -0.651 C -1.015,0 -1.308,-0.294 -1.308,-0.656 V -8.74 l -6.23,8.473 C -7.662,-0.098 -7.858,0 -8.067,0 h -0.778 c -0.363,0 -0.656,-0.294 -0.656,-0.656 v -11.099 c 0,-0.363 0.293,-0.656 0.656,-0.656 h 0.666 c 0.363,0 0.657,0.293 0.657,0.656 v 8.08 l 6.214,-8.47 c 0.123,-0.167 0.32,-0.266 0.53,-0.266 H 0 c 0.362,0 0.656,0.293 0.656,0.656 V -0.656 C 0.656,-0.294 0.362,0 0,0" />
      </g>
      <g
         transform="matrix(0.35277777,0,0,-0.35277777,83.742949,209.83259)"
         id="g2922">
        <path
           inkscape:connector-curvature="0"
           id="path2924"
           style="fill:#254a9a;fill-opacity:1;fill-rule:nonzero;stroke:none"
           d="m 0,0 h -8.163 c -0.362,0 -0.655,-0.294 -0.655,-0.656 v -0.652 c 0,-0.361 0.293,-0.655 0.655,-0.655 h 3.093 v -9.792 c 0,-0.363 0.294,-0.656 0.656,-0.656 h 0.665 c 0.364,0 0.658,0.293 0.658,0.656 v 9.792 H 0 c 0.363,0 0.656,0.294 0.656,0.655 v 0.652 C 0.656,-0.294 0.363,0 0,0" />
      </g>
      <g
         transform="matrix(0.35277777,0,0,-0.35277777,85.465212,211.9669)"
         id="g2926">
        <path
           inkscape:connector-curvature="0"
           id="path2928"
           style="fill:#254a9a;fill-opacity:1;fill-rule:nonzero;stroke:none"
           d="m 0,0 h -3.542 c -0.362,0 -0.656,-0.293 -0.656,-0.656 v -0.54 c 0,-0.363 0.294,-0.656 0.656,-0.656 H 0 c 0.362,0 0.655,0.293 0.655,0.656 v 0.54 C 0.655,-0.293 0.362,0 0,0" />
      </g>
      <g
         transform="matrix(0.35277777,0,0,-0.35277777,90.330367,211.82649)"
         id="g2930">
        <path
           inkscape:connector-curvature="0"
           id="path2932"
           style="fill:#254a9a;fill-opacity:1;fill-rule:nonzero;stroke:none"
           d="m 0,0 h -0.604 c -0.003,0 -0.007,-0.001 -0.011,-0.001 h -1.97 c -0.363,0 -0.657,-0.294 -0.657,-0.656 v -0.667 c 0,-0.362 0.294,-0.656 0.657,-0.656 h 1.326 v -2.029 c -0.773,-0.53 -1.702,-0.818 -2.647,-0.818 -2.449,0 -4.441,1.92 -4.441,4.281 0,2.353 1.992,4.267 4.441,4.267 1.137,0 2.256,-0.419 3.071,-1.15 0.134,-0.12 0.312,-0.181 0.491,-0.166 0.18,0.014 0.345,0.102 0.458,0.242 l 0.397,0.492 c 0.22,0.275 0.187,0.675 -0.079,0.907 -1.192,1.045 -2.734,1.623 -4.338,1.623 -3.54,0 -6.421,-2.787 -6.421,-6.215 0,-3.435 2.866,-6.228 6.389,-6.228 1.593,0 3.183,0.584 4.367,1.603 0.144,0.124 0.228,0.306 0.228,0.498 v 4.017 C 0.657,-0.295 0.362,0 0,0" />
      </g>
      <g
         transform="matrix(0.35277777,0,0,-0.35277777,93.612965,209.82659)"
         id="g2934">
        <path
           inkscape:connector-curvature="0"
           id="path2936"
           style="fill:#254a9a;fill-opacity:1;fill-rule:nonzero;stroke:none"
           d="m 0,0 c -3.531,0 -6.404,-2.787 -6.404,-6.214 0,-3.436 2.873,-6.229 6.404,-6.229 3.531,0 6.405,2.793 6.405,6.229 C 6.405,-2.787 3.531,0 0,0 m 0,-10.48 c -2.432,0 -4.41,1.914 -4.41,4.266 0,2.344 1.978,4.25 4.41,4.25 2.431,0 4.409,-1.906 4.409,-4.25 0,-2.352 -1.978,-4.266 -4.409,-4.266" />
      </g>
      <g
         transform="matrix(0.35277777,0,0,-0.35277777,99.580205,211.89775)"
         id="g2938">
        <path
           inkscape:connector-curvature="0"
           id="path2940"
           style="fill:#254a9a;fill-opacity:1;fill-rule:nonzero;stroke:none"
           d="m 0,0 c 0.668,0.575 1.039,1.422 1.039,2.452 0,2.099 -1.578,3.403 -4.118,3.403 h -4.542 c -0.361,0 -0.655,-0.294 -0.655,-0.656 v -11.1 c 0,-0.362 0.294,-0.656 0.655,-0.656 h 4.574 c 2.907,0 4.641,1.361 4.641,3.64 C 1.594,-1.627 1.011,-0.601 0,0 m -3.095,0.821 h -3.203 v 3.07 h 3.203 c 0.982,0 2.155,-0.263 2.155,-1.519 0,-1.029 -0.725,-1.551 -2.155,-1.551 m -3.203,-1.963 h 3.203 c 1.012,0 2.71,-0.22 2.71,-1.694 0,-1.453 -1.473,-1.758 -2.71,-1.758 h -3.203 v 3.452" />
      </g>
      <g
         transform="matrix(0.35277777,0,0,-0.35277777,102.98416,209.96735)"
         id="g2942">
        <path
           inkscape:connector-curvature="0"
           id="path2944"
           style="fill:#254a9a;fill-opacity:1;fill-rule:nonzero;stroke:none"
           d="m 0,0 c -0.107,0.233 -0.34,0.383 -0.597,0.383 h -0.714 c -0.259,0 -0.492,-0.15 -0.599,-0.385 l -5.033,-11.099 c -0.092,-0.204 -0.075,-0.439 0.047,-0.627 0.121,-0.189 0.328,-0.301 0.552,-0.301 h 0.73 c 0.258,0 0.492,0.151 0.598,0.386 l 1.255,2.774 h 5.648 l 1.27,-2.777 c 0.107,-0.233 0.341,-0.383 0.597,-0.383 h 0.73 c 0.223,0 0.432,0.114 0.552,0.302 0.121,0.187 0.138,0.423 0.045,0.628 z m -2.883,-6.889 1.924,4.265 1.946,-4.265 h -3.87" />
      </g>
      <g
         transform="matrix(0.35277777,0,0,-0.35277777,105.93832,209.83259)"
         id="g2946">
        <path
           inkscape:connector-curvature="0"
           id="path2948"
           style="fill:#254a9a;fill-opacity:1;fill-rule:nonzero;stroke:none"
           d="m 0,0 h -0.667 c -0.362,0 -0.657,-0.294 -0.657,-0.656 v -11.099 c 0,-0.363 0.295,-0.656 0.657,-0.656 H 0 c 0.362,0 0.658,0.293 0.658,0.656 V -0.656 C 0.658,-0.294 0.362,0 0,0" />
      </g>
      <g
         transform="matrix(0.35277777,0,0,-0.35277777,110.82323,209.83259)"
         id="g2950">
        <path
           inkscape:connector-curvature="0"
           id="path2952"
           style="fill:#254a9a;fill-opacity:1;fill-rule:nonzero;stroke:none"
           d="M 0,0 H -0.652 C -1.014,0 -1.307,-0.294 -1.307,-0.656 V -8.74 l -6.231,8.473 C -7.661,-0.098 -7.858,0 -8.067,0 h -0.778 c -0.363,0 -0.657,-0.294 -0.657,-0.656 v -11.099 c 0,-0.363 0.294,-0.656 0.657,-0.656 h 0.667 c 0.362,0 0.655,0.293 0.655,0.656 v 8.08 l 6.216,-8.47 c 0.123,-0.167 0.319,-0.266 0.528,-0.266 H 0 c 0.362,0 0.655,0.293 0.655,0.656 V -0.656 C 0.655,-0.294 0.362,0 0,0" />
      </g>
      <g
         transform="matrix(0.35277777,0,0,-0.35277777,45.907535,247.25702)"
         id="g2954">
        <g
           id="g2956">
          <g
             id="g2962">
            <g
               id="g2964">
              <path
                 inkscape:connector-curvature="0"
                 id="path2982"
                 style="fill:url(#linearGradient2980);stroke:none"
                 d="m 128.549,123.501 v -10.912 h -2.009 v 12.413 z m 38.947,-10.876 h -7.903 l -0.056,0.055 -6.951,6.875 c -0.283,0.28 -0.719,0.366 -1.088,0.212 -0.374,-0.156 -0.616,-0.518 -0.616,-0.923 v -6.255 h -2.065 v 15.479 c 0,0.274 -0.115,0.539 -0.314,0.727 l -5.775,5.454 c -0.186,0.176 -0.431,0.273 -0.687,0.273 h -2.887 c -0.552,0 -1.001,-0.449 -1.001,-1 v -20.933 h -2.049 v 33.606 c 0,0.408 -0.244,0.771 -0.621,0.925 -0.37,0.152 -0.814,0.06 -1.092,-0.223 l -9.564,-9.705 c -0.186,-0.188 -0.288,-0.438 -0.288,-0.702 v -7.497 l -3.916,2.924 c -0.356,0.265 -0.878,0.256 -1.224,-0.021 l -8.904,-7.138 c -0.238,-0.191 -0.374,-0.476 -0.374,-0.781 v -11.388 h -2.018 v 6.277 c 0,2.204 -1.518,4.547 -4.329,4.547 -2.812,0 -4.329,-2.354 -4.329,-4.569 v -6.255 l -2.041,0.001 v 4.258 c 0,1.726 -1.188,3.559 -3.39,3.559 -2.202,0 -3.39,-1.835 -3.39,-3.563 v -4.256 l -2.033,-10e-4 -10e-4,0.189 c -0.003,0.858 -0.006,1.957 -0.006,2.398 0,1.466 -1.384,2.751 -2.962,2.751 -1.578,0 -2.962,-1.279 -2.962,-2.738 v -2.598 l -8.916,0.001 c -0.552,0 -1,-0.449 -1.001,-1 0,-0.268 0.104,-0.519 0.293,-0.708 0.189,-0.189 0.44,-0.293 0.707,-0.293 l 9.917,-0.001 c 0.267,0 0.519,0.104 0.707,0.293 0.189,0.189 0.294,0.44 0.294,0.707 v 3.418 c 0,0.37 0.403,0.919 0.961,0.919 0.55,0 0.962,-0.502 0.962,-0.951 0,-0.257 0.01,-3.392 0.01,-3.392 0.003,-0.55 0.451,-0.997 1,-0.997 l 4.031,0.003 c 0.551,0 1,0.449 1,1 v 5.256 c 0,0.541 0.29,1.563 1.389,1.563 1.099,0 1.39,-1.019 1.39,-1.559 v -5.257 c 0,-0.552 0.448,-1.001 0.999,-1.001 l 4.041,-0.002 c 0.264,0 0.522,0.107 0.708,0.293 0.186,0.186 0.293,0.444 0.293,0.707 v 7.256 c 0,0.888 0.487,2.569 2.329,2.569 1.708,0 2.328,-1.523 2.328,-2.547 v -7.278 c 0,-0.551 0.449,-1 1,-1 h 4.019 c 0.552,0 1,0.449 1,1 v 11.909 l 0.072,0.058 7.853,6.296 4.493,-3.355 v -14.908 c 0,-0.551 0.449,-1 1,-1 h 4.011 c 0.551,0 1,0.449 1,1 v 12.415 c 0,0.313 -0.151,0.613 -0.402,0.801 l -3.608,2.695 v 8.581 l 0.055,0.056 7.508,7.619 v -32.167 c 0,-0.551 0.449,-1 1,-1 h 4.051 c 0.551,0 1,0.449 1,1 v 20.934 h 1.489 l 0.055,-0.052 5.118,-4.833 v -16.049 c 0,-0.551 0.449,-1 1,-1 h 4.066 c 0.552,0 1.001,0.449 1.001,1 v 4.86 l 5.595,-5.534 c 0.189,-0.186 0.439,-0.289 0.703,-0.289 h 8.315 c 0.552,0 1.001,0.449 1.001,1 0,0.552 -0.449,1 -1.001,1" />
            </g>
          </g>
        </g>
      </g>
    </g>
  </g>
</svg>
